<?xml version="1.0" standalone="no"?>
<!DOCTYPE svg PUBLIC "-//W3C//DTD SVG 20010904//EN"
 "http://www.w3.org/TR/2001/REC-SVG-20010904/DTD/svg10.dtd">
<svg version="1.0" xmlns="http://www.w3.org/2000/svg"
 width="900.000000pt" height="900.000000pt" viewBox="0 0 900.000000 900.000000"
 preserveAspectRatio="xMidYMid meet">
<metadata>
Created by potrace 1.14, written by Peter Selinger 2001-2017
</metadata>
<g transform="translate(0.000000,900.000000) scale(0.100000,-0.100000)"
fill="#000000" stroke="none">
<path d="M0 4500 l0 -4500 4500 0 4500 0 0 4500 0 4500 -4500 0 -4500 0 0
-4500z m4821 4260 c689 -70 1294 -303 1832 -708 1386 -1043 1822 -2925 1036
-4473 -213 -420 -542 -829 -904 -1124 -60 -49 -161 -138 -223 -197 -300 -287
-652 -491 -1056 -613 -117 -35 -389 -95 -433 -95 -13 0 -23 -3 -23 -7 0 -15
51 -175 71 -220 l20 -47 -38 -38 c-36 -36 -40 -37 -69 -27 -68 26 -156 -24
-170 -97 -14 -77 49 -154 127 -154 50 0 79 12 122 50 l36 31 7 -46 c3 -26 4
-82 2 -126 -13 -225 -242 -471 -560 -603 -48 -20 -94 -36 -103 -36 -29 0 -180
67 -266 119 -164 97 -280 216 -351 359 -38 75 -42 92 -46 172 -2 49 -1 106 2
126 l7 37 32 -31 c44 -41 69 -52 117 -52 130 0 183 140 85 230 -23 21 -36 25
-91 25 -58 0 -66 3 -95 31 l-31 32 72 146 c41 80 71 148 69 151 -3 2 -74 22
-159 44 -85 22 -172 46 -194 53 -35 13 -46 12 -120 -11 -108 -32 -333 -36
-436 -7 -161 46 -339 157 -431 268 -75 90 -147 222 -164 297 -5 23 -23 42 -73
78 -766 541 -1306 1410 -1451 2334 -47 295 -63 633 -40 834 27 235 42 341 64
450 203 982 805 1830 1665 2347 440 265 932 433 1430 488 52 5 109 12 125 14
72 8 512 5 606 -4z"/>
<path d="M4365 8674 c-16 -2 -88 -8 -160 -14 -211 -18 -352 -42 -588 -101
-726 -183 -1412 -641 -1878 -1254 -236 -311 -411 -644 -538 -1023 -22 -68 -43
-134 -45 -145 -3 -12 -10 -38 -16 -57 -5 -19 -13 -48 -15 -65 -3 -16 -10 -43
-15 -60 -6 -16 -12 -43 -14 -60 -2 -16 -8 -57 -14 -90 -41 -221 -46 -291 -46
-605 0 -316 4 -364 46 -595 6 -33 12 -73 14 -89 2 -16 9 -47 15 -70 6 -22 12
-48 14 -56 5 -27 36 -144 46 -175 39 -123 56 -174 95 -273 52 -133 163 -363
229 -477 26 -44 52 -89 59 -100 16 -29 138 -209 145 -215 3 -3 19 -23 36 -45
79 -107 235 -282 346 -390 104 -101 357 -315 372 -315 2 0 7 46 10 102 9 152
22 206 79 330 l31 69 -58 59 c-79 80 -63 98 25 29 l65 -50 20 28 c40 56 120
135 180 176 84 58 96 66 128 78 15 6 27 14 26 17 0 4 -29 30 -65 57 -74 57
-237 220 -315 315 -284 345 -464 737 -544 1188 -40 222 -40 592 -1 812 20 114
41 210 54 251 110 343 214 562 376 784 213 294 436 501 737 684 379 231 776
350 1234 368 344 14 737 -64 1084 -217 94 -41 294 -151 362 -200 20 -14 58
-40 85 -59 89 -63 268 -217 335 -288 294 -313 511 -695 612 -1078 8 -33 21
-80 27 -103 6 -24 13 -62 16 -85 3 -23 9 -58 14 -77 34 -127 33 -628 -1 -779
-6 -25 -12 -59 -13 -76 -4 -32 -31 -149 -46 -200 -27 -88 -75 -225 -90 -260
-10 -22 -30 -68 -44 -103 -48 -115 -153 -295 -259 -443 -123 -173 -396 -443
-557 -551 -14 -10 -51 -35 -84 -58 -32 -22 -60 -40 -63 -40 -3 0 -17 -9 -32
-19 -43 -31 -214 -117 -298 -151 -43 -18 -87 -36 -98 -41 -11 -5 -54 -20 -95
-33 -118 -38 -176 -98 -226 -235 -27 -72 -54 -191 -54 -233 0 -23 5 -27 43
-33 23 -3 76 -12 117 -20 230 -41 576 -53 795 -27 240 30 595 117 651 161 240
185 488 437 685 696 55 73 167 242 214 327 53 93 179 353 210 433 38 95 114
322 120 356 3 15 10 40 15 54 5 14 12 40 15 58 3 18 10 48 15 67 5 19 12 51
15 70 3 19 10 58 15 85 38 198 44 285 44 600 1 363 -15 504 -89 825 -9 42 -37
149 -46 175 -28 90 -50 156 -69 205 -12 30 -28 73 -36 94 -38 104 -177 383
-247 496 -291 470 -619 812 -1067 1110 -314 209 -683 374 -1025 459 -235 58
-349 78 -575 101 -115 12 -397 21 -445 14z m225 -338 c0 -19 6 -25 28 -28 15
-2 26 -6 25 -10 -2 -5 -3 -64 -3 -133 l0 -125 -24 0 c-18 0 -25 -6 -28 -22 -3
-22 -8 -23 -83 -23 -80 0 -80 0 -83 28 -3 21 -9 27 -28 27 -24 0 -24 0 -24
108 0 133 5 152 36 152 19 0 24 5 24 25 0 25 1 25 80 25 78 0 80 -1 80 -24z
m197 -12 c-3 -19 1 -24 23 -29 22 -5 26 -10 22 -30 -3 -17 -12 -25 -31 -27
-26 -3 -26 -5 -40 -125 l-13 -123 -30 0 c-29 0 -30 2 -25 33 4 17 13 95 22
172 9 77 18 145 20 151 2 7 15 9 30 6 22 -4 26 -9 22 -28z m-507 14 c0 -7 9
-87 19 -178 11 -91 18 -166 18 -167 -1 -1 -14 -4 -28 -8 l-26 -6 -11 101 c-6
56 -12 104 -14 105 -4 4 -150 -13 -153 -17 -1 -2 3 -47 10 -101 6 -53 9 -99 7
-102 -11 -10 -52 -4 -52 8 0 6 -9 86 -20 176 -11 91 -18 166 -17 168 2 1 14 4
27 5 22 3 25 -2 31 -45 4 -27 9 -50 11 -51 2 -1 36 2 76 7 l73 9 -1 47 c-1 25
-1 49 -1 54 2 12 51 8 51 -5z m720 -23 c0 -28 -41 -349 -45 -353 -2 -3 -15 -2
-28 1 l-23 6 13 103 c18 152 18 158 -12 158 -14 0 -25 4 -25 9 0 25 14 41 36
41 17 0 24 6 24 18 0 25 9 32 37 32 14 0 23 -6 23 -15z m187 -25 c163 -38 163
-38 163 -65 0 -30 2 -30 -105 -5 -109 25 -115 25 -115 -3 0 -21 7 -25 63 -36
78 -15 88 -21 80 -49 -6 -26 -11 -26 -83 -7 -30 8 -60 15 -66 15 -10 0 -44
-108 -44 -138 0 -5 45 -19 100 -32 74 -18 100 -28 100 -39 -1 -37 -14 -38
-140 -8 -69 16 -126 30 -127 31 -3 3 80 356 84 356 1 0 42 -9 90 -20z m-309
-82 c3 -22 -1 -28 -15 -28 -30 0 -43 14 -36 38 8 34 47 26 51 -10z m-1301 -19
c5 -16 11 -19 33 -14 26 6 28 3 58 -81 18 -47 32 -92 32 -99 0 -14 -187 -82
-197 -72 -7 7 -54 139 -51 142 2 1 25 9 51 18 l48 16 13 -32 c7 -18 16 -40 19
-50 6 -14 11 -16 27 -7 11 6 20 14 20 18 0 17 -42 132 -48 132 -17 0 -192 -65
-192 -72 0 -4 18 -58 40 -119 22 -62 37 -116 33 -120 -5 -4 -16 -9 -26 -11
-16 -2 -26 18 -62 119 l-43 123 24 6 c21 5 24 11 19 34 -6 27 -4 29 82 58 107
37 113 37 120 11z m2187 -82 c16 -11 12 -23 -50 -150 -36 -76 -64 -140 -62
-142 10 -11 132 -64 138 -60 4 2 35 65 70 140 35 74 66 135 69 135 3 0 15 -7
26 -15 19 -15 17 -19 -50 -155 -63 -127 -70 -138 -88 -128 -16 8 -23 6 -37
-12 l-17 -22 -72 36 c-66 34 -71 38 -60 58 11 20 0 37 -23 38 -5 0 -8 4 -8 9
0 15 133 281 140 281 3 0 14 -6 24 -13z m334 -173 c2 -1 -2 -12 -8 -24 -10
-19 -9 -24 9 -37 18 -12 19 -18 10 -35 -9 -18 -8 -24 9 -37 18 -14 19 -18 7
-34 -9 -13 -20 -17 -34 -12 -24 7 -27 25 -8 44 10 10 8 15 -7 27 -11 8 -22 14
-25 14 -3 0 -35 -46 -70 -103 -36 -56 -66 -104 -67 -105 -5 -8 -44 10 -44 20
0 11 26 54 134 221 51 79 59 87 74 76 9 -8 18 -14 20 -15z m-2411 -58 c-3 -9
-197 -79 -204 -73 -1 2 -4 14 -5 27 -3 21 6 26 92 55 86 30 96 31 108 17 7 -9
11 -21 9 -26z m-757 14 c10 -19 12 -19 35 -4 22 14 24 14 35 -7 11 -19 9 -24
-9 -38 -19 -14 -20 -19 -8 -35 11 -16 17 -17 36 -6 13 6 24 10 25 8 1 -2 26
-41 55 -87 49 -79 52 -86 35 -98 -10 -7 -20 -13 -23 -13 -3 0 -30 38 -59 85
-30 47 -56 85 -58 85 -2 0 -33 -18 -69 -41 l-64 -40 54 -87 c50 -79 53 -88 38
-100 -10 -7 -21 -11 -26 -9 -4 1 -50 69 -102 151 l-94 149 82 53 c45 29 87 53
94 53 7 1 17 -8 23 -19z m3339 -64 c10 -11 -7 -44 -84 -165 -88 -137 -98 -149
-116 -138 -25 16 -25 18 16 81 40 64 41 65 18 82 -15 10 -16 16 -6 31 11 18
16 19 44 8 12 -4 26 10 55 54 40 63 53 71 73 47z m121 -86 c0 -13 -211 -285
-222 -285 -6 0 -15 7 -21 16 -8 13 12 46 97 157 98 130 108 141 126 130 11 -7
20 -15 20 -18z m-3720 -15 c16 -19 8 -28 -80 -96 -59 -44 -68 -55 -59 -71 14
-26 28 -22 89 27 52 42 55 43 73 27 21 -19 23 -15 -68 -88 l-39 -32 43 -56
c24 -31 47 -58 50 -60 3 -2 42 25 86 60 44 35 82 64 85 64 3 0 11 -9 18 -20
11 -18 4 -26 -81 -93 -50 -40 -97 -76 -104 -80 -8 -5 -51 41 -123 130 -60 76
-109 141 -108 145 4 9 191 158 199 158 4 0 12 -7 19 -15z m3814 -50 c18 -14
17 -17 -30 -71 -88 -100 -90 -105 -71 -119 23 -16 22 -19 -14 -60 -26 -29 -29
-38 -19 -50 18 -22 27 -19 61 20 26 30 33 33 50 22 25 -16 24 -20 -12 -62 -30
-34 -33 -35 -50 -19 -18 16 -20 16 -39 -1 -19 -17 -22 -17 -36 -3 -13 13 -14
20 -4 39 10 19 10 24 -4 34 -22 16 -21 19 15 60 30 34 31 36 14 55 -17 19 -16
22 46 94 35 41 66 75 69 75 3 0 14 -6 24 -14z m160 -140 c18 -14 17 -17 -30
-71 -27 -31 -58 -68 -69 -81 l-20 -25 -19 21 c-18 20 -17 21 45 95 35 41 66
75 69 75 3 0 14 -6 24 -14z m-4189 -95 c68 -69 69 -70 50 -90 -18 -20 -18 -21
18 -58 35 -35 36 -39 20 -55 -16 -15 -16 -18 0 -35 16 -18 16 -20 -3 -37 -19
-17 -22 -18 -37 -2 -16 15 -15 18 2 37 18 20 18 21 -18 58 -35 36 -36 39 -20
55 16 16 13 21 -57 92 -71 72 -73 75 -55 90 11 8 22 15 25 15 3 0 37 -31 75
-70z m4370 -85 c73 -80 85 -98 75 -110 -16 -19 -37 -19 -47 -1 -4 8 -34 42
-67 76 -55 58 -59 60 -77 44 -18 -16 -16 -19 36 -77 43 -47 52 -63 44 -74 -19
-23 -36 -15 -86 42 l-49 55 -57 -51 c-66 -58 -67 -51 28 -150 47 -49 55 -62
45 -74 -7 -8 -18 -15 -24 -15 -15 0 -178 179 -174 192 4 11 250 237 259 237 4
1 46 -42 94 -94z m-4520 -65 c69 -70 69 -70 49 -90 -20 -20 -20 -20 -94 55
-71 72 -73 75 -55 90 11 8 22 15 25 15 3 0 37 -31 75 -70z m145 -75 c32 -33
33 -36 17 -52 -16 -17 -19 -15 -54 19 -31 31 -35 39 -24 52 18 22 23 21 61
-19z m-258 -12 c17 -15 17 -17 1 -36 -17 -18 -17 -19 1 -33 17 -12 22 -12 37
2 10 9 22 14 26 13 15 -7 152 -114 153 -120 0 -3 -6 -14 -14 -24 -12 -17 -18
-15 -93 43 -44 34 -82 62 -85 62 -7 0 -101 -120 -97 -123 3 -2 139 -108 158
-124 3 -2 -4 -12 -15 -23 -19 -18 -21 -17 -161 94 l-142 112 65 82 c57 71 68
81 85 72 10 -6 19 -15 19 -19 0 -5 -21 -35 -46 -65 -37 -47 -44 -59 -34 -71
20 -24 32 -17 78 40 47 61 48 63 26 80 -14 10 -15 14 -3 33 17 26 17 26 41 5z
m4848 -105 c55 -75 59 -84 43 -95 -9 -7 -20 -13 -23 -13 -4 0 -26 27 -50 60
-24 33 -46 60 -49 60 -3 0 -14 -7 -23 -14 -16 -12 -14 -18 28 -75 44 -59 46
-63 29 -81 -13 -15 -14 -22 -5 -40 6 -12 10 -23 8 -24 -2 -1 -38 -28 -82 -59
-61 -45 -82 -55 -92 -46 -25 21 -15 35 66 93 49 36 77 62 73 69 -32 55 -86
116 -96 110 -7 -3 -45 -31 -85 -61 -69 -50 -75 -52 -88 -35 -7 10 -12 21 -11
25 3 10 279 208 289 208 4 0 35 -37 68 -82z m34 -137 c16 -18 16 -20 -5 -35
-21 -14 -24 -14 -37 5 -11 16 -11 23 -2 34 16 20 23 19 44 -4z m-5136 -14 c8
-9 -3 -35 -43 -99 l-55 -87 22 -15 c21 -15 23 -13 61 49 40 66 55 76 76 52 8
-11 2 -28 -29 -76 -22 -34 -40 -63 -40 -65 0 -6 118 -76 128 -76 6 0 34 38 63
85 28 47 54 85 58 85 3 0 14 -6 23 -13 15 -12 10 -24 -54 -125 -44 -72 -74
-110 -81 -105 -104 62 -275 169 -285 178 -11 10 -1 32 54 118 37 59 73 107 80
107 6 0 16 -6 22 -13z m5251 -110 c19 12 24 7 60 -55 61 -105 68 -122 50 -133
-26 -16 -34 -9 -84 80 -42 77 -52 88 -67 80 -25 -13 -23 -22 18 -91 35 -61 35
-68 -1 -82 -6 -2 -5 -12 3 -26 7 -12 12 -23 10 -25 -2 -2 -32 -20 -68 -40
l-64 -36 -16 22 c-15 18 -20 20 -39 9 -13 -6 -24 -10 -25 -8 -2 2 -19 33 -39
69 l-37 67 22 14 c17 12 19 17 10 35 -9 16 -8 24 3 33 18 15 43 7 52 -16 5
-14 -6 -28 -30 -37 -7 -2 53 -120 68 -136 2 -2 34 13 70 33 l65 37 -37 70
c-35 65 -37 71 -20 80 14 8 17 18 12 39 -9 40 23 59 47 27 15 -19 20 -20 37
-10z m-5421 -202 c1 -1 -16 -44 -40 -95 l-42 -92 22 -17 c18 -14 19 -19 9 -37
-9 -17 -17 -20 -34 -13 -26 9 -27 13 -13 39 8 16 6 22 -13 32 l-24 13 45 97
c42 91 46 97 66 86 11 -6 22 -12 24 -13z m175 -79 c38 -16 66 -34 63 -40 -2
-6 -7 -18 -11 -28 -4 -11 0 -18 14 -23 27 -8 27 -14 -10 -88 -38 -76 -33 -71
-58 -58 -17 9 -22 8 -31 -9 -19 -35 -67 -18 -55 19 6 19 12 21 36 16 28 -6 31
-4 60 60 17 37 29 68 27 70 -5 4 -127 65 -131 65 -2 0 -18 -31 -37 -70 -19
-38 -37 -70 -40 -70 -3 0 -14 6 -24 13 -17 12 -16 17 15 80 31 63 35 67 60 62
22 -5 29 -2 34 15 4 12 10 20 14 18 4 -2 37 -16 74 -32z m5427 -10 c0 -6 -73
-44 -162 -85 -152 -69 -163 -72 -175 -55 -7 10 -13 21 -13 24 0 4 73 41 163
82 144 67 163 74 175 60 6 -9 12 -21 12 -26z m89 -201 c43 -115 47 -135 32
-135 -5 0 -16 -3 -24 -6 -11 -4 -20 9 -32 46 -14 41 -20 50 -34 45 -55 -23
-275 -104 -277 -102 -1 1 -7 12 -13 25 -13 25 -23 19 104 65 39 14 95 35 126
46 l57 22 -19 50 -19 50 22 8 c13 5 26 6 29 2 4 -3 25 -56 48 -116z m81 -224
c0 -5 3 -16 6 -25 4 -11 -2 -19 -20 -26 -21 -8 -25 -14 -20 -33 4 -19 1 -25
-17 -30 -25 -7 -39 6 -39 35 0 10 9 18 23 20 17 2 21 8 19 27 -4 23 11 41 36
41 6 0 12 -4 12 -9z m-6016 -116 c0 -16 -2 -41 -5 -54 -4 -23 1 -25 141 -58
79 -18 147 -37 151 -41 4 -4 3 -17 -1 -28 l-8 -21 -143 34 c-78 18 -147 32
-153 30 -6 -2 -15 -23 -21 -48 -10 -39 -14 -44 -36 -41 -13 2 -25 5 -26 5 -1
1 12 60 29 130 28 118 32 128 52 125 16 -2 21 -10 20 -33z m5941 -26 c4 -12 3
-24 -2 -29 -8 -7 -219 -60 -240 -60 -7 0 -13 11 -13 25 0 20 7 26 38 34 225
59 209 57 217 30z m67 -43 c5 -25 -7 -36 -37 -36 -17 0 -27 42 -12 52 24 15
45 8 49 -16z m63 -37 c7 -22 -7 -39 -33 -39 -16 0 -26 25 -18 45 8 23 44 18
51 -6z m-6138 -251 c-3 -24 -9 -73 -13 -110 -7 -68 -7 -68 19 -68 24 0 25 3
32 73 4 39 9 75 11 78 2 4 15 4 29 1 29 -5 28 6 9 -121 l-5 -39 105 -12 c86
-10 106 -16 106 -29 -1 -37 -11 -38 -190 -18 -96 11 -177 21 -179 23 -4 4 18
220 25 247 3 10 15 17 31 17 24 0 25 -2 20 -42z m6203 -182 c0 -22 -5 -24 -72
-30 -197 -16 -389 -28 -392 -25 -2 2 -6 13 -8 24 -2 17 4 21 42 28 56 10 412
35 423 30 4 -2 7 -15 7 -27z m-6037 -136 l117 0 0 -25 0 -25 -105 0 -105 0 0
-80 0 -80 105 0 105 0 0 -31 c0 -31 -1 -31 -37 -25 -21 3 -93 6 -160 6 l-123
0 0 25 c0 20 -5 25 -25 25 -26 0 -26 0 -23 82 3 81 4 83 28 83 20 0 26 6 28
29 3 27 6 28 40 22 20 -3 90 -6 155 -6z m5877 -250 c167 -14 170 -15 170 -45
0 -21 -5 -25 -30 -25 -26 0 -30 -4 -30 -26 0 -22 -4 -25 -27 -22 -24 3 -28 -1
-28 -22 0 -18 6 -26 23 -28 16 -3 22 -10 22 -28 0 -17 7 -25 25 -30 18 -4 25
-13 25 -30 0 -29 -1 -29 -195 -9 -77 8 -148 15 -157 15 -12 0 -18 8 -18 23 0
13 2 26 5 28 2 3 59 -1 127 -7 68 -7 126 -10 131 -7 17 10 6 43 -18 49 -37 9
-35 52 3 56 19 2 28 9 30 24 3 23 5 23 -185 40 -73 7 -73 7 -73 36 0 29 1 30
38 24 20 -3 93 -10 162 -16z m-5750 -94 c0 -29 -9 -32 -117 -41 l-83 -7 0 -33
c0 -18 3 -53 6 -80 l7 -47 41 6 c23 3 69 8 104 12 l64 7 -4 -29 -3 -29 -160
-17 c-88 -9 -167 -17 -176 -17 -20 -1 -26 19 -35 126 -6 80 -6 81 17 85 20 2
23 8 21 31 -2 24 0 27 28 27 25 0 30 -4 30 -25 0 -18 -5 -25 -19 -25 -28 0
-31 -8 -23 -86 7 -65 8 -69 32 -69 14 0 24 5 24 10 -1 6 -4 40 -8 76 -6 65 -6
67 19 73 18 5 25 13 25 31 0 21 6 25 43 29 159 21 167 21 167 -8z m5723 -247
c83 -17 107 -25 107 -38 -1 -38 -12 -39 -125 -15 -145 31 -141 31 -149 -13
-18 -97 -26 -114 -49 -107 -12 3 -24 8 -25 9 -2 2 4 37 13 78 16 72 18 75 43
74 21 -2 28 3 30 21 3 19 8 23 25 18 12 -3 70 -15 130 -27z m-5731 -83 c4 -19
0 -26 -16 -30 -32 -9 -33 -8 -38 19 -6 29 -2 35 28 35 15 0 23 -7 26 -24z
m5873 -5 c3 -6 -2 -42 -11 -80 -14 -65 -18 -71 -41 -71 -16 0 -27 -7 -30 -20
-3 -12 -14 -20 -27 -20 -30 0 -34 6 -28 35 3 20 8 23 32 19 27 -6 28 -5 40 63
7 37 15 71 17 76 6 10 41 9 48 -2z m-6081 -27 c11 -28 6 -44 -12 -44 -10 0
-21 -2 -24 -5 -3 -3 2 -38 11 -78 16 -67 19 -72 41 -69 35 5 221 49 225 54 2
2 -3 32 -11 67 -17 72 -14 91 15 91 16 0 22 -13 35 -69 20 -87 20 -80 -8 -91
-18 -6 -22 -14 -19 -33 5 -23 1 -24 -119 -50 -67 -15 -126 -27 -130 -27 -4 0
-8 10 -10 23 -2 17 -9 21 -29 19 -24 -3 -26 1 -42 70 -21 90 -22 86 6 90 17 2
21 9 19 30 -2 25 4 30 39 37 4 0 10 -6 13 -15z m5791 -94 c0 -16 -6 -26 -19
-28 -25 -5 -39 12 -31 38 10 31 50 24 50 -10z m69 -126 c55 -19 101 -34 104
-34 2 0 2 -12 -1 -26 -3 -20 1 -28 18 -36 l23 -10 -28 -82 c-42 -122 -40 -118
-67 -112 -18 5 -25 1 -32 -17 l-9 -24 -100 34 -100 35 29 86 c42 124 35 118
115 92 38 -13 71 -24 73 -26 3 -3 -29 -104 -33 -104 -1 0 -24 7 -50 16 -52 18
-53 18 -58 -11 -2 -16 8 -24 57 -42 33 -12 65 -22 71 -22 11 -1 74 157 74 183
0 7 -50 30 -112 51 -62 21 -117 41 -121 45 -15 13 13 52 31 45 9 -4 62 -22
116 -41z m-159 -4 c5 -8 -52 -178 -64 -192 -4 -4 -17 -5 -29 -1 -25 6 -26 1
20 129 25 70 32 81 49 77 10 -3 22 -9 24 -13z m-5326 -144 c23 -65 40 -120 39
-121 -17 -14 -341 -116 -347 -109 -16 18 -83 225 -77 240 3 7 14 14 25 14 16
0 25 -18 51 -95 25 -75 36 -95 50 -95 30 0 31 13 5 89 l-24 72 22 8 c28 11 29
10 57 -69 12 -36 23 -66 24 -67 3 -4 130 39 138 46 4 3 -8 49 -27 102 l-34 97
22 10 c12 5 25 7 28 3 3 -3 25 -60 48 -125z m5345 -221 c86 -41 156 -81 156
-88 0 -6 -5 -19 -10 -27 -8 -12 -16 -11 -56 8 -25 13 -48 22 -49 20 -13 -15
-65 -131 -61 -137 3 -4 23 -16 46 -26 44 -20 46 -23 27 -49 -12 -16 -24 -12
-172 58 -87 42 -161 78 -163 80 -8 9 10 46 22 46 6 0 49 -18 95 -40 45 -22 84
-40 87 -40 2 0 19 31 38 68 l35 69 -92 44 c-51 24 -93 44 -95 45 -6 4 19 44
27 44 4 0 79 -34 165 -75z m-5264 9 c0 -6 -29 -24 -65 -39 -65 -28 -73 -37
-55 -65 7 -11 3 -18 -13 -27 -19 -10 -24 -9 -39 10 l-17 22 -67 -33 c-36 -18
-67 -32 -69 -30 -1 2 -7 13 -14 25 -11 22 -5 25 151 101 144 70 164 78 176 64
6 -9 12 -21 12 -28z m-149 -166 c10 -19 9 -24 -9 -36 -19 -12 -21 -52 -2 -52
5 0 56 23 115 50 59 28 111 50 115 50 5 0 14 -9 20 -20 10 -20 0 -26 -156
-101 -129 -63 -169 -78 -175 -67 -14 21 -10 37 11 48 17 9 18 14 9 32 -10 18
-8 24 11 38 19 14 21 20 11 38 -9 17 -8 23 6 31 26 15 31 14 44 -11z m5286
-165 c68 -43 123 -80 123 -83 -1 -3 -7 -13 -14 -23 -12 -16 -17 -17 -36 -5
-18 11 -23 11 -34 -4 -16 -22 -30 -23 -46 -3 -10 12 -10 19 -2 27 7 7 12 15
12 19 0 4 -47 37 -105 74 -58 37 -105 69 -105 72 0 2 5 13 11 24 10 20 10 20
42 0 18 -12 87 -56 154 -98z m-4997 66 c7 -11 10 -22 8 -24 -2 -1 -72 -42
-156 -91 -146 -83 -153 -86 -167 -68 -7 10 -10 23 -6 27 10 10 294 175 303
176 4 1 12 -8 18 -20z m60 -90 c7 -11 10 -22 8 -24 -2 -1 -48 -33 -103 -70
-55 -38 -101 -70 -103 -71 -2 -1 2 -11 10 -23 11 -18 10 -23 -5 -38 -17 -17
-19 -17 -36 6 -16 21 -20 22 -39 10 -22 -14 -37 -7 -44 18 -3 10 275 211 294
212 4 1 12 -8 18 -20z m4695 -74 c30 -19 80 -51 110 -70 l54 -35 12 22 c10 18
8 24 -9 38 -19 15 -19 18 -3 38 14 18 18 19 34 7 16 -11 17 -17 7 -36 -11 -19
-9 -24 8 -38 19 -14 19 -18 6 -36 -13 -18 -12 -21 7 -36 18 -14 20 -19 9 -38
-10 -20 -13 -21 -33 -8 -12 8 -80 51 -152 97 -71 45 -131 84 -133 85 -4 3 21
45 26 45 2 0 27 -16 57 -35z m-4575 -101 c17 -20 16 -20 -149 -133 -104 -71
-137 -88 -148 -80 -18 15 -17 36 3 47 14 8 14 13 4 32 -11 20 -10 25 6 37 17
12 21 11 36 -7 17 -20 17 -20 119 50 56 38 105 70 109 70 4 0 13 -7 20 -16z
m4734 -175 c6 -5 2 -17 -8 -28 -18 -20 -20 -19 -125 66 -149 121 -138 109
-117 132 18 19 20 18 129 -71 62 -50 116 -95 121 -99z m-274 149 c0 -6 -21
-35 -46 -64 -25 -30 -43 -58 -40 -63 3 -5 58 -51 121 -102 114 -92 115 -93 96
-112 -19 -19 -21 -18 -140 79 -114 92 -120 99 -104 116 15 17 15 19 -2 38 -17
19 -16 21 31 79 40 49 51 58 66 50 10 -5 18 -15 18 -21z m-4691 -6 c11 -20 -3
-42 -26 -42 -19 0 -34 35 -21 48 17 17 36 15 47 -6z"/>
<path d="M4430 8180 l0 -130 80 0 80 0 0 124 c0 142 4 136 -96 136 l-64 0 0
-130z"/>
<path d="M2872 7830 c-65 -42 -71 -50 -47 -70 11 -9 26 -5 75 26 61 37 71 53
47 72 -10 8 -29 1 -75 -28z"/>
<path d="M1430 5199 c0 -78 1 -80 23 -77 20 3 22 9 25 81 3 77 3 77 -23 77
-25 0 -25 -1 -25 -81z"/>
<path d="M4304 7590 c-910 -77 -1698 -666 -2037 -1525 -73 -184 -124 -397
-147 -612 -18 -166 -8 -495 20 -653 80 -451 278 -857 589 -1208 81 -90 241
-238 311 -287 36 -25 36 -25 114 -10 196 38 400 -2 594 -117 75 -44 218 -187
265 -265 35 -57 41 -62 85 -72 183 -39 581 -40 797 -2 921 163 1655 820 1909
1712 213 743 48 1548 -441 2154 -378 469 -939 787 -1531 869 -140 20 -394 27
-528 16z m836 -670 l0 -130 385 0 385 0 0 -385 0 -385 130 0 130 0 0 -640 0
-640 -130 0 -130 0 0 -130 0 -130 -125 0 -125 0 0 130 0 130 -130 0 -130 0 0
515 0 515 -130 0 -130 0 0 -130 0 -130 -125 0 -124 0 -3 -127 -3 -128 -127 -3
-128 -3 0 -124 0 -125 -130 0 -130 0 0 -130 0 -130 -125 0 -125 0 0 130 0 130
-130 0 -130 0 0 -130 0 -129 128 -3 127 -3 0 -125 0 -125 -127 -3 -128 -3 0
-124 0 -125 -130 0 -130 0 0 -130 0 -130 -125 0 -124 0 -3 -127 -3 -128 -255
0 -255 0 0 255 0 255 128 3 127 3 0 124 0 124 128 3 127 3 2 125 1 125 126 3
125 3 3 127 3 127 128 3 127 3 0 124 0 124 128 3 127 3 3 128 3 127 124 0 124
0 3 128 3 127 128 3 127 3 0 124 0 125 130 0 130 0 0 130 0 130 -515 0 -515 0
0 130 0 130 -130 0 -130 0 0 125 0 125 130 0 130 0 0 130 0 130 640 0 640 0 0
-130z"/>
<path d="M3860 6665 l0 -125 513 -2 512 -3 3 -127 3 -128 124 0 125 0 0 -130
0 -130 -125 0 -125 0 0 -125 0 -125 -130 0 -130 0 0 -130 0 -130 -130 0 -130
0 0 -130 0 -130 -125 0 -125 0 0 -125 0 -125 125 0 125 0 0 125 0 125 130 0
130 0 0 130 0 130 130 0 130 0 0 130 0 130 125 0 125 0 0 125 0 125 130 0 130
0 0 -125 0 -124 128 -3 127 -3 3 -512 2 -513 125 0 125 0 0 640 0 640 -125 0
-125 0 0 130 0 130 -130 0 -130 0 0 130 0 130 -130 0 -130 0 0 125 0 125 -640
0 -640 0 0 -125z"/>
<path d="M3600 4610 l0 -130 -125 0 -125 0 0 -125 0 -125 -130 0 -130 0 0
-130 0 -131 128 3 127 3 3 128 3 127 124 0 125 0 0 125 0 125 130 0 130 0 0
130 0 130 -130 0 -130 0 0 -130z"/>
<path d="M3175 3196 c-136 -27 -230 -69 -338 -155 -53 -41 -137 -134 -137
-150 0 -3 28 -23 63 -43 l62 -37 38 45 c87 100 237 178 373 194 103 11 196 -3
306 -46 116 -45 351 -124 356 -119 8 8 -41 65 -108 128 -161 149 -409 223
-615 183z"/>
<path d="M3180 2936 c-25 -7 -68 -24 -95 -39 -57 -28 -155 -112 -155 -131 0
-12 214 -116 385 -189 82 -34 103 -51 121 -94 18 -43 8 -87 -28 -124 -44 -43
-101 -41 -181 8 -69 42 -238 166 -313 230 -28 23 -53 43 -56 43 -15 0 -33
-105 -32 -185 3 -177 81 -308 246 -416 87 -56 299 -158 443 -212 527 -198
1061 -253 1604 -166 459 73 836 239 1206 530 96 75 114 96 71 79 -46 -17 -275
-60 -407 -76 -162 -19 -470 -22 -629 -5 -302 33 -619 112 -913 228 -238 94
-444 198 -747 378 -193 115 -213 125 -275 141 -62 17 -185 16 -245 0z m979
-741 c32 -16 41 -33 41 -78 0 -71 -93 -105 -145 -52 -35 34 -33 78 4 116 33
32 58 36 100 14z m885 -154 c65 -57 11 -165 -75 -146 -32 7 -69 48 -69 76 0
34 24 72 55 85 33 14 60 10 89 -15z"/>
<path d="M2624 2764 c-41 -93 -58 -179 -57 -299 0 -130 17 -205 74 -321 118
-240 350 -393 623 -410 91 -6 185 7 151 21 -195 78 -398 186 -489 261 -72 59
-148 166 -177 249 -45 128 -44 278 1 397 11 29 20 53 20 53 0 0 -27 24 -60 54
l-60 53 -26 -58z"/>
<path d="M4010 2734 c36 -20 93 -49 128 -65 l63 -28 29 32 c16 17 30 35 30 38
0 3 -26 9 -57 13 -32 4 -100 16 -152 26 -52 11 -97 20 -100 20 -3 0 23 -17 59
-36z"/>
<path d="M4905 2739 c-55 -10 -179 -23 -275 -29 -103 -7 -193 -18 -219 -27
-42 -15 -111 -67 -111 -84 0 -23 452 -192 576 -215 32 -6 34 -5 34 21 0 55 42
202 78 278 21 42 33 76 27 76 -5 -1 -55 -10 -110 -20z"/>
<path d="M4099 1531 c-6 -17 -29 -68 -50 -112 -40 -83 -42 -99 -8 -99 59 0
147 -68 176 -137 20 -49 17 -156 -6 -201 -44 -87 -143 -141 -233 -129 -39 5
-40 5 -33 -21 23 -102 145 -258 270 -347 75 -54 245 -138 280 -138 34 1 205
84 279 137 128 92 247 244 272 348 6 26 5 27 -29 21 -20 -3 -59 0 -88 7 -75
18 -151 94 -169 169 -30 127 38 249 162 286 28 8 58 15 66 15 9 0 12 6 9 18
-3 9 -17 53 -30 97 l-24 80 -259 -3 c-242 -4 -452 10 -550 34 -21 5 -26 2 -35
-25z"/>
</g>
</svg>
